<?xml version="1.0" standalone="no"?>
<!DOCTYPE svg PUBLIC "-//W3C//DTD SVG 20010904//EN"
 "http://www.w3.org/TR/2001/REC-SVG-20010904/DTD/svg10.dtd">
<svg version="1.0" xmlns="http://www.w3.org/2000/svg"
 width="96.000000pt" height="96.000000pt" viewBox="0 0 96.000000 96.000000"
 preserveAspectRatio="xMidYMid meet">

<g transform="translate(0.000000,96.000000) scale(0.100000,-0.100000)"
fill="#000000" stroke="none">
<path d="M282 860 c-24 -10 -42 -46 -42 -86 0 -21 -4 -24 -39 -24 -24 0 -48
-8 -65 -21 -25 -20 -26 -24 -26 -129 l0 -109 30 -23 c30 -22 30 -23 30 -119 0
-93 1 -98 26 -118 15 -12 32 -21 40 -21 7 0 26 -13 42 -30 24 -24 39 -30 71
-30 29 0 41 -4 41 -14 0 -31 30 -46 90 -46 60 0 90 15 90 46 0 10 12 14 41 14
32 0 47 6 71 30 16 17 35 30 42 30 8 0 25 9 40 21 25 20 26 25 26 118 0 96 0
97 30 119 l30 23 0 109 c0 105 -1 109 -26 129 -17 13 -41 21 -65 21 -35 0 -39
3 -39 25 0 36 -19 71 -47 84 -34 16 -133 14 -165 -3 -24 -13 -32 -13 -55 0
-31 15 -135 18 -171 4z m178 -40 c6 -12 9 -74 8 -157 l-3 -138 -37 -3 c-50 -4
-49 -22 0 -22 47 0 62 14 62 57 0 26 4 33 19 33 10 0 24 -7 31 -15 28 -34 87
6 64 43 -15 24 -42 27 -64 7 -38 -34 -50 -14 -50 85 0 126 3 130 98 130 47 0
83 -5 90 -12 17 -17 15 -83 -3 -98 -8 -7 -15 -25 -15 -41 0 -19 5 -29 15 -29
10 0 15 10 15 30 0 30 0 30 60 30 74 0 80 -9 80 -120 0 -108 -7 -120 -71 -120
-28 0 -60 7 -74 16 -31 20 -65 4 -65 -31 0 -36 34 -51 66 -30 14 9 37 15 52
13 27 -3 27 -4 30 -85 4 -111 -4 -125 -71 -121 l-52 3 -3 45 c-3 49 -21 70
-59 70 -33 0 -29 -28 5 -32 25 -3 27 -7 30 -51 3 -40 7 -50 28 -59 50 -23 22
-38 -73 -38 -63 0 -65 1 -76 30 -12 31 -27 40 -27 16 0 -31 -30 -46 -90 -46
-88 0 -115 16 -65 38 22 10 25 18 25 67 0 62 17 80 50 50 22 -20 49 -17 64 8
23 36 -36 76 -64 42 -7 -8 -20 -15 -30 -15 -27 0 -38 -21 -42 -75 l-3 -50 -52
-3 c-67 -4 -75 10 -71 121 l3 82 38 3 c24 2 37 8 37 18 0 11 -14 14 -60 14
-74 0 -80 9 -80 120 0 111 6 120 80 120 54 0 60 -2 60 -20 0 -12 -7 -31 -16
-45 -20 -31 -4 -65 31 -65 35 0 51 34 31 65 -9 14 -16 33 -16 43 0 11 -7 25
-15 32 -18 15 -20 81 -3 98 7 7 43 12 90 12 67 0 79 -3 88 -20z m-165 -200
c-5 -8 -11 -8 -17 -2 -6 6 -7 16 -3 22 5 8 11 8 17 2 6 -6 7 -16 3 -22z m291
-11 c10 -17 -13 -36 -27 -22 -12 12 -4 33 11 33 5 0 12 -5 16 -11z m89 -138
c7 -12 -12 -24 -25 -16 -11 7 -4 25 10 25 5 0 11 -4 15 -9z m-239 -102 c10
-17 -13 -36 -27 -22 -12 12 -4 33 11 33 5 0 12 -5 16 -11z m77 -208 c47 -24
34 -41 -33 -41 -67 0 -78 14 -32 42 15 9 29 15 32 14 3 -1 17 -8 33 -15z"/>
</g>
</svg>
